<svg fill="#000000" xmlns="http://www.w3.org/2000/svg"  viewBox="0 0 64 64" width="512px" height="512px"><path d="M 10.646484 5.0058594 C 10.283577 5.0202956 9.9227287 5.0767862 9.5683594 5.1816406 C 8.1508829 5.6010583 7.0234375 7.0319125 7.0234375 9.0351562 L 7.0234375 16.292969 A 1.0001 1.0001 0 1 0 9.0234375 16.292969 L 9.0234375 9.0351562 C 9.0234375 7.6434001 9.4534917 7.3011917 10.134766 7.0996094 C 10.816039 6.8980271 11.925196 7.0770714 12.814453 7.578125 L 28.384766 16.357422 L 23.636719 16.357422 C 18.872995 16.357422 14.781387 19.787997 13.953125 24.478516 L 11.019531 41.085938 C 10.574181 43.602168 11.934553 45.762672 13.837891 46.726562 C 15.741229 47.690455 18.28794 47.508763 20.052734 45.662109 L 24.542969 40.962891 L 38.222656 40.927734 L 39.591797 42.324219 C 30.286842 47.570629 19.067508 53.895845 12.814453 57.421875 L 12.8125 57.421875 L 12.810547 57.423828 C 11.935898 57.920655 10.829432 58.10717 10.146484 57.908203 C 9.4635372 57.709237 9.0275461 57.36689 9.0234375 55.960938 L 9 47.996094 A 1.0001 1.0001 0 1 0 7 48.003906 L 7.0234375 55.966797 C 7.0293275 57.982843 8.1656351 59.414341 9.5859375 59.828125 C 11.005423 60.241671 12.533042 59.881365 13.796875 59.164062 L 13.798828 59.162109 C 20.158348 55.576044 30.812366 49.569033 41.042969 43.800781 L 41.048828 43.806641 L 51.298828 38.023438 L 51.298828 38.019531 C 55.122636 35.863788 49.539432 39.009897 54.445312 36.244141 L 54.447266 36.244141 L 54.449219 36.242188 C 55.891606 35.424326 56.906871 34.147915 56.992188 32.660156 C 57.077508 31.172397 56.1351 29.705161 54.40625 28.730469 L 49.355469 25.884766 C 48.879673 20.554211 44.391184 16.357422 38.939453 16.357422 L 32.457031 16.357422 L 13.796875 5.8359375 L 13.794922 5.8359375 C 13.156098 5.4759643 12.454409 5.2080109 11.734375 5.0820312 C 11.374358 5.0190414 11.009392 4.9914232 10.646484 5.0058594 z M 23.636719 18.357422 L 38.939453 18.357422 C 43.626054 18.357422 47.404297 22.133712 47.404297 26.820312 C 47.404297 31.506913 43.626054 35.285156 38.939453 35.285156 L 27.205078 35.285156 L 18.605469 44.279297 C 17.438263 45.500643 15.953348 45.554765 14.742188 44.941406 C 13.531026 44.328048 12.693632 43.098362 12.988281 41.433594 L 15.921875 24.826172 C 16.583613 21.078691 19.830443 18.357422 23.636719 18.357422 z M 7 19 C 6.448 19 6 19.448 6 20 C 6 20.552 6.448 21 7 21 L 9 21 C 9.552 21 10 20.552 10 20 C 10 19.448 9.552 19 9 19 L 7 19 z M 39.255859 22.089844 A 1.577 1.577 0 1 0 39.255859 25.244141 A 1.577 1.577 0 1 0 39.255859 22.089844 z M 22.535156 22.404297 L 22.535156 25.560547 L 19.380859 25.560547 L 19.380859 28.082031 L 22.535156 28.082031 L 22.535156 31.238281 L 25.060547 31.238281 L 25.060547 28.082031 L 28.214844 28.082031 L 28.214844 25.560547 L 25.060547 25.560547 L 25.060547 22.404297 L 22.535156 22.404297 z M 7 23 C 6.448 23 6 23.448 6 24 C 6 24.552 6.448 25 7 25 L 9 25 C 9.552 25 10 24.552 10 24 C 10 23.448 9.552 23 9 23 L 7 23 z M 36.101562 25.244141 A 1.577 1.577 0 0 0 36.101562 28.398438 A 1.577 1.577 0 0 0 36.101562 25.244141 z M 42.410156 25.244141 A 1.577 1.577 0 0 0 42.410156 28.398438 A 1.577 1.577 0 0 0 42.410156 25.244141 z M 7 27 C 6.448 27 6 27.448 6 28 C 6 28.552 6.448 29 7 29 L 9 29 C 9.552 29 10 28.552 10 28 C 10 27.448 9.552 27 9 27 L 7 27 z M 49.671875 28.359375 L 53.423828 30.472656 C 54.720978 31.203964 55.029824 31.924634 54.994141 32.546875 C 54.958461 33.169116 54.48055 33.925767 53.460938 34.503906 C 49.540891 36.713885 54.166134 34.10608 50.945312 35.921875 L 49.671875 28.359375 z M 39.255859 28.398438 A 1.577 1.577 0 1 0 39.255859 31.552734 A 1.577 1.577 0 1 0 39.255859 28.398438 z M 7 31 C 6.448 31 6 31.448 6 32 C 6 32.552 6.448 33 7 33 L 9 33 C 9.552 33 10 32.552 10 32 C 10 31.448 9.552 31 9 31 L 7 31 z M 48.201172 31.673828 L 49.091797 36.966797 C 40.688555 41.704305 44.942944 39.308217 41.398438 41.306641 L 39.060547 38.925781 L 26.458984 38.958984 L 28.058594 37.285156 L 38.939453 37.285156 C 42.955413 37.285156 46.447487 35.004346 48.201172 31.673828 z M 7 35 C 6.448 35 6 35.448 6 36 C 6 36.552 6.448 37 7 37 L 9 37 C 9.552 37 10 36.552 10 36 C 10 35.448 9.552 35 9 35 L 7 35 z M 7 39 C 6.448 39 6 39.448 6 40 C 6 40.552 6.448 41 7 41 L 9 41 C 9.552 41 10 40.552 10 40 C 10 39.448 9.552 39 9 39 L 7 39 z M 7 43 C 6.448 43 6 43.448 6 44 C 6 44.552 6.448 45 7 45 L 9 45 C 9.552 45 10 44.552 10 44 C 10 43.448 9.552 43 9 43 L 7 43 z"/></svg>